<svg enable-background="new 0 0 1264.93 601.13" viewBox="0 0 1264.93 601.13" xmlns="http://www.w3.org/2000/svg"><path d="m1224.79 379.19c-2.39 1.6-4.25 2.39-6.38 3.19-4.26 1.6-9.04 3.19-13.83 4.79-4.78 1.86-9.57 3.45-13.82 4.78-5.05 1.86-10.1 3.46-14.36 5.05-3.45 1.6-6.64 3.46-9.83 5.85-2.66 2.4-4.79 5.05-6.92 8.78-2.12 3.45-3.19 7.97-3.19 13.29 0 10.63 2.66 18.61 7.71 23.93 5.06 5.05 14.63 7.97 28.45 7.97 14.09 0 23.66-2.92 28.98-8.24 5.05-5.58 7.71-13.29 7.71-23.4l-.27-52.37c-.53 2.93-2.12 4.79-4.25 6.38z" fill="none"/><path d="m697.86 379.19c-2.39 1.6-4.25 2.39-6.38 3.19-4.25 1.6-9.03 3.19-13.82 4.79-4.79 1.86-9.57 3.45-13.82 4.78-5.06 1.86-10.11 3.46-14.36 5.05-3.46 1.6-6.65 3.46-9.84 5.85-2.66 2.4-4.78 5.05-6.91 8.78-2.13 3.72-3.19 7.97-3.19 13.29 0 10.63 2.66 18.61 7.71 23.93 5.05 5.05 14.62 7.97 28.45 7.97 14.09 0 23.66-2.92 28.97-8.24 5.06-5.58 7.71-13.29 7.71-23.4l-.26-52.37c-.53 2.93-2.13 4.79-4.26 6.38z" fill="none"/><path d="m1104.36 260.62h-20.47c-17.02 0-30.58 2.13-39.88 6.38-9.84 4.25-17.02 9.31-21.8 14.89-5.05 5.85-7.98 11.43-9.04 17.28-1.33 5.85-1.86 10.37-1.86 13.56v173.33c0 1.6 1.33 2.93 2.92 2.93h30.58c1.59 0 2.92-1.33 2.92-2.93v-165.89c0-2.66.27-5.32 1.06-8.51.8-2.92 2.4-5.58 4.79-8.5 2.39-2.93 6.38-5.05 10.9-7.18 4.78-2.13 10.9-3.19 18.61-3.19h14.35c1.07 0 2.4-.8 2.66-2.13l6.92-26.58c.53-1.6-.8-3.46-2.66-3.46z" fill="#fff"/><path d="m1247.65 275.24c-11.7-9.83-30.04-14.62-54.76-14.62-12.76 0-23.66 1.6-33.5 3.46-9.31 2.39-16.75 6.38-22.6 10.9-6.11 4.78-10.37 10.36-13.03 16.48-2.65 6.11-3.98 12.76-3.98 19.94v7.44c0 1.6 1.33 2.93 2.92 2.93h30.57c1.6 0 2.93-1.07 2.93-2.66.53-7.18 3.19-13.29 7.44-18.35 5.32-5.84 14.62-8.77 28.71-8.77 7.18 0 13.03.8 17.55 2.39 4.52 1.6 8.24 3.46 11.17 6.12 2.66 2.66 4.78 5.05 5.85 8.24 1.33 3.19 1.86 5.85 1.86 8.77v7.98c0 3.45-.53 6.38-1.86 9.04-1.07 2.39-2.4 4.52-4.26 6.64-1.86 1.6-3.45 3.19-5.31 4.26-1.6 1.06-3.2 1.86-4.26 2.39s-3.99 1.33-8.51 3.19c-4.78 1.6-9.83 3.46-15.95 5.58-6.11 2.4-12.49 4.26-18.87 6.65-6.65 2.39-12.23 3.99-17.28 5.85-10.11 3.46-17.82 9.84-23.4 18.61-5.32 8.77-8.24 18.61-8.24 29.24v19.94c0 5.05 1.06 10.64 2.92 16.75 1.6 6.12 5.32 11.7 10.64 16.75s12.76 9.57 22.06 12.76c9.31 3.19 21.27 5.05 36.43 5.05 14.88 0 27.11-1.59 36.42-5.05 9.3-3.46 16.75-7.71 22.06-12.76 5.32-5.05 8.78-10.63 10.64-16.75 1.86-6.11 2.92-11.7 2.92-16.75v-124.95c0-14.62-5.85-26.85-17.28-36.69zm-26.05 173.34c-5.32 5.32-14.89 8.24-28.98 8.24-13.82 0-23.39-2.92-28.45-7.97-5.05-5.32-7.71-13.3-7.71-23.93 0-5.32 1.07-9.84 3.19-13.29 2.13-3.73 4.26-6.38 6.92-8.78 3.19-2.39 6.38-4.25 9.83-5.85 4.26-1.59 9.31-3.19 14.36-5.05 4.25-1.33 9.04-2.92 13.82-4.78 4.79-1.6 9.57-3.19 13.83-4.79 2.13-.8 3.99-1.59 6.38-3.19 2.13-1.59 3.72-3.45 4.25-6.38l.27 52.37c0 10.11-2.66 17.82-7.71 23.4z" fill="#fff"/><path d="m977.01 260.35h-30.31c-1.59 0-2.92 1.33-2.92 2.93v162.17c0 7.44-1.06 9.84-1.86 13.03s-2.39 5.85-5.05 8.5c-2.39 2.66-6.12 4.79-10.9 6.65-4.79 1.86-11.43 2.93-19.67 2.93-7.98 0-14.36-1.07-18.88-2.93-4.79-1.86-8.24-3.99-10.63-6.91-2.13-2.66-3.73-5.58-4.52-8.77-.8-2.93-1.6-6.92-1.6-12.23v-162.44c0-1.6-1.33-2.93-2.92-2.93h-30.31c-1.6 0-2.93 1.33-2.93 2.93v173.6c0 3.46.8 7.71 1.87 13.56 1.06 5.85 4.25 11.7 9.03 17.28 5.06 5.85 11.97 10.9 21.8 14.89 9.84 3.99 23.13 6.11 40.15 6.11 17.01 0 30.31-2.12 40.14-6.11 9.84-4.25 17.02-9.31 21.8-14.89 5.05-5.58 7.98-11.43 9.04-17.01 1.33-5.85 1.86-10.37 1.86-13.83v-7.71l-.26-165.89c0-1.6-1.33-2.93-2.93-2.93z" fill="#fff"/><path d="m720.46 275.24c-11.69-9.83-30.04-14.62-54.76-14.62-12.76 0-23.66 1.6-32.7 3.46-9.31 2.39-16.75 6.38-22.6 10.9-6.12 4.78-10.37 10.36-13.03 16.48-2.66 6.11-3.99 12.76-3.99 19.94v7.44c0 1.6 1.33 2.93 2.93 2.93h29.77c1.6 0 2.93-1.07 2.93-2.66.53-7.18 3.19-13.29 7.44-18.35 5.32-5.84 14.62-8.77 28.71-8.77 7.18 0 13.03.8 17.55 2.39 4.52 1.6 8.51 3.46 11.17 6.12s4.78 5.05 5.85 8.24c1.33 3.19 1.86 5.85 1.86 8.77v7.98c0 3.45-.53 6.38-1.86 9.04-1.07 2.39-2.4 4.52-4.26 6.64-1.86 1.6-3.45 3.19-5.31 4.26-1.6 1.06-3.2 1.86-4.26 2.39s-3.99 1.33-8.51 3.19c-4.78 1.6-9.83 3.46-15.95 5.58-6.11 2.4-12.49 4.26-18.87 6.65-6.65 2.39-12.23 3.99-17.28 5.85-10.11 3.46-17.82 9.84-23.4 18.61-5.32 8.77-8.24 18.61-8.24 29.24v19.94c0 5.05 1.06 10.64 2.92 16.75 1.6 6.12 5.32 11.7 10.64 16.75s12.76 9.57 22.06 12.76c9.31 3.19 21.27 5.05 36.43 5.05 14.88 0 27.11-1.59 36.42-5.05 9.3-3.46 16.75-7.71 22.06-12.76 5.32-5.05 8.78-10.63 10.64-16.75 1.86-6.11 2.92-11.7 2.92-16.75v-124.95c0-14.62-5.85-26.85-17.28-36.69zm-25.79 173.34c-5.31 5.32-14.88 8.24-28.97 8.24-13.83 0-23.4-2.92-28.45-7.97-5.05-5.32-7.71-13.3-7.71-23.93 0-5.32 1.06-9.57 3.19-13.29 2.13-3.73 4.25-6.38 6.91-8.78 3.19-2.39 6.38-4.25 9.84-5.85 4.25-1.59 9.3-3.19 14.36-5.05 4.25-1.33 9.03-2.92 13.82-4.78 4.79-1.6 9.57-3.19 13.82-4.79 2.13-.8 3.99-1.59 6.38-3.19 2.13-1.59 3.73-3.45 4.26-6.38l.26 52.37c0 10.11-2.65 17.82-7.71 23.4z" fill="#fff"/><path d="m768.32 211.54v274.52c0 1.6 1.33 2.93 2.92 2.93h30.31c1.59 0 2.92-1.33 2.92-2.93v-273.67c-5.22 2.41-10.96 3.61-17.22 3.61-6.96 0-13.27-1.49-18.93-4.46z" fill="#fff"/><g fill="#8feaa2"><path d="m593.38 189.72v-75.1c0-.6.21-1.12.62-1.53s.92-.62 1.53-.62h26.43c6.73 0 12.48 2.04 17.24 6.13 4.77 4.08 7.15 9.08 7.15 14.97 0 3.93-1.34 7.45-4.03 10.55s-5.73 5.56-9.13 7.37c10.13 4.24 15.2 10.4 15.2 18.49 0 6.28-2.4 11.5-7.2 15.65-4.8 4.16-10.64 6.24-17.53 6.24h-28.13c-.61 0-1.12-.21-1.53-.62-.41-.42-.62-.93-.62-1.53zm17.7-45.04h8.85c2.19 0 4.06-.79 5.61-2.38s2.33-3.52 2.33-5.79c0-2.19-.78-4.03-2.33-5.5s-3.42-2.21-5.61-2.21h-8.85zm0 30.97h10.32c2.19 0 4.1-.81 5.73-2.44s2.44-3.57 2.44-5.84c0-2.19-.96-4.06-2.89-5.62-1.93-1.55-4.07-2.33-6.41-2.33h-9.19z"/><path d="m668.88 181.15c-7.9-7.9-11.85-17.53-11.85-28.87s3.95-21 11.85-28.98 17.53-11.97 28.87-11.97 20.99 3.99 28.93 11.97 11.91 17.64 11.91 28.98-3.97 20.97-11.91 28.87-17.58 11.85-28.93 11.85-20.97-3.94-28.87-11.85zm6.29-28.87c0 6.2 2.21 11.51 6.64 15.94 4.42 4.42 9.74 6.64 15.94 6.64s11.53-2.21 16-6.64c4.46-4.42 6.69-9.74 6.69-15.94 0-6.28-2.23-11.65-6.69-16.11s-9.8-6.69-16-6.69-11.51 2.23-15.94 6.69c-4.43 4.47-6.64 9.84-6.64 16.11z"/><path d="m816.18 123.3c-7.94-7.98-17.59-11.97-28.93-11.97s-20.97 3.99-28.87 11.97-11.85 17.64-11.85 28.98 3.95 20.97 11.85 28.87c3.05 3.05 6.36 5.52 9.94 7.39 5.66 2.97 11.97 4.46 18.93 4.46 6.26 0 12-1.2 17.22-3.61 4.24-1.95 8.15-4.7 11.71-8.24 7.94-7.9 11.91-17.53 11.91-28.87s-3.97-21-11.91-28.98zm-11.71 43.6c-.38.45-.8.89-1.23 1.32-4.46 4.42-9.79 6.63-15.99 6.63s-11.52-2.21-15.94-6.63c-1.15-1.15-2.15-2.36-2.99-3.63-2.43-3.62-3.65-7.72-3.65-12.31 0-6.28 2.22-11.65 6.64-16.11s9.74-6.69 15.94-6.69 11.53 2.23 15.99 6.69c4.47 4.46 6.7 9.83 6.7 16.11 0 5.6-1.82 10.47-5.47 14.62z"/><path d="m851.57 189.72v-60.58h-16.22c-.61 0-1.12-.21-1.53-.62-.42-.41-.62-.93-.62-1.53v-12.36c0-.6.21-1.12.62-1.53s.93-.62 1.53-.62h50.37c.6 0 1.11.21 1.53.62.42.42.62.93.62 1.53v12.36c0 .61-.21 1.12-.62 1.53-.42.42-.93.62-1.53.62h-16.22v60.58c0 .53-.23 1.02-.68 1.47s-.95.68-1.48.68h-13.61c-.53 0-1.02-.23-1.47-.68-.47-.45-.69-.94-.69-1.47z"/><path d="m904.94 181.15c-7.98-7.9-11.97-17.53-11.97-28.87s3.99-21 11.97-28.98 17.64-11.97 28.98-11.97c10.59 0 19.74 3.52 27.45 10.55 1.13 1.06 1.17 2.12.11 3.18l-8.85 9.19c-.98.91-1.93.91-2.84 0-4.31-3.86-9.42-5.79-15.31-5.79-6.35 0-11.65 2.29-15.88 6.86-4.24 4.58-6.35 10.08-6.35 16.5 0 6.35 2.14 11.78 6.41 16.28s9.59 6.75 15.94 6.75c5.9 0 10.97-1.82 15.2-5.45 1.06-.91 2.04-.87 2.95.11l8.85 9.42c.98.98.94 2-.11 3.06-7.56 7.34-16.75 11-27.56 11-11.35.02-21.01-3.93-28.99-11.84z"/><path d="m966.82 191.87c-.83 0-1.46-.3-1.87-.91-.41-.6-.43-1.29-.06-2.04l35.51-76.34c.38-.83 1.02-1.25 1.93-1.25h1.13c.91 0 1.55.42 1.93 1.25l35.51 76.34c.38.76.36 1.44-.06 2.04-.42.61-1.04.91-1.87.91h-12.59c-1.74 0-3.06-.94-3.97-2.84l-4.08-8.96h-30.86l-4.08 9.08c-.76 1.82-2.12 2.72-4.08 2.72zm27.45-27.22h17.24l-8.62-18.72h-.11z"/><path d="m1045.2 189.38 12.82-76.23c.15-1.21.83-1.81 2.04-1.81h1.82c.91 0 1.55.38 1.93 1.13l26.32 49.01h.23l26.32-49.01c.38-.76 1.02-1.13 1.93-1.13h1.81c1.21 0 1.89.61 2.04 1.81l12.82 76.23c.07.76-.1 1.36-.51 1.82-.42.45-.96.68-1.64.68h-13.39c-.53 0-1-.19-1.42-.57s-.66-.79-.74-1.25l-5.1-35.05h-.23l-19.06 36.75c-.38.83-1.02 1.25-1.93 1.25h-2.04c-.91 0-1.55-.42-1.93-1.25l-19.17-36.76h-.23l-4.99 35.05c-.15 1.21-.87 1.82-2.16 1.82h-13.39c-.68 0-1.23-.23-1.64-.68s-.58-1.06-.51-1.81z"/><path d="m1149.79 189.72v-75.1c0-.6.21-1.12.62-1.53s.92-.62 1.53-.62h27.34c6.96 0 12.93 2.46 17.92 7.37 4.99 4.92 7.49 10.82 7.49 17.7 0 7.03-2.48 13.05-7.43 18.04s-10.91 7.49-17.87 7.49h-11.91v26.66c0 .53-.23 1.02-.68 1.47s-.95.68-1.48.68h-13.39c-.61 0-1.12-.21-1.53-.62-.4-.43-.61-.94-.61-1.54zm17.7-43.22h10.78c2.5 0 4.61-.87 6.35-2.61s2.61-3.86 2.61-6.35c0-2.34-.87-4.33-2.61-5.96s-3.86-2.44-6.35-2.44h-10.78z"/><path d="m1212.64 184.27c-.61-.6-.95-1.08-1.02-1.42-.08-.34.07-.92.45-1.76l5.33-9.42c.38-.68 1.02-1.06 1.93-1.13s1.55.08 1.93.45l.79.45c.53.38 1.15.79 1.87 1.25.72.45 1.63.95 2.72 1.47 1.1.53 2.19 1.02 3.29 1.48 1.1.45 2.31.83 3.63 1.13s2.59.45 3.8.45c2.27 0 4.14-.64 5.61-1.93 1.48-1.28 2.21-2.91 2.21-4.88 0-4.54-3.9-8.36-11.69-11.46-14.67-5.82-22.01-14.18-22.01-25.07 0-6.13 2.31-11.42 6.92-15.88s11.04-6.69 19.29-6.69c8.47 0 16.56 2.84 24.28 8.51.6.38.94.98 1.02 1.82.07.83-.04 1.44-.34 1.81l-5.79 8.74c-.45.68-1.08 1.19-1.87 1.53s-1.46.32-1.98-.06c-.08 0-.53-.3-1.36-.91-.83-.6-1.78-1.19-2.84-1.76s-2.25-1.19-3.57-1.87-2.74-1.23-4.25-1.64-2.91-.62-4.2-.62c-2.04 0-3.74.57-5.1 1.7s-2.04 2.5-2.04 4.08c0 2.12.94 4.03 2.84 5.73 1.89 1.7 5.07 3.46 9.53 5.28 15.28 6.05 22.91 14.67 22.91 25.86 0 6.2-2.48 11.67-7.43 16.39-4.95 4.73-11.4 7.09-19.34 7.09-6.43 0-11.78-.95-16.05-2.84-4.27-1.87-7.43-3.84-9.47-5.88z"/><path d="m255.99 601.13c-169.29 0-159.61-69.93-255.99-139.38l7.35-37.84 58.4.67-1.97-34.71 43.19-6.05c-100.78-110.09-52.81-328.47 127.69-346.09l-2.61-37.73h57.5l-2.62 38.26c175.05 21.14 213.87 236.65 119.98 345.68l45.47 6.74-.65 38.3 59.97.69 7.55 37.42c-92.17 67.16-93.97 134.04-263.26 134.04zm-188.24-147.58c-24.81 0-26.01 26.57.42 26.57 24.14 0 24.3-26.57-.42-26.57zm385.52 28.78c24.14 0 24.29-26.57-.42-26.57-24.81.01-26.01 26.57.42 26.57zm-121.04-27.2c35.86 0 36.09-55.74-.63-55.74-36.85 0-38.63 55.74.63 55.74zm-71.94 118.14c24.14 0 24.29-37.53-.42-37.53-24.82 0-26.02 37.53.42 37.53zm-115.49-28.4c24.14 0 24.29-29.98-.42-29.98-24.81 0-26.01 29.98.42 29.98zm111.98-425.35c-160.12 0-159.58 242.45-4.11 243.88l8.11-1.14 4.95.74c159.56-10.85 148.5-243.48-8.95-243.48zm116.02 396.91c-24.81 0-26.01 29.98.42 29.98 24.14 0 24.3-29.98-.42-29.98zm-171.82-349.72c14.32-10.85 33.01-17.58 56.18-17.58 10.12 0 19.43 1.28 27.94 3.61l-49.87 47.13zm-32.71 96.46c-5.56-26.8-.6-56.18 15.21-78.42l32.19 33.61z"/></g></svg>